<svg width="512" height="512" viewBox="0 0 512 512" fill="none" xmlns="http://www.w3.org/2000/svg">
  <defs>
    <linearGradient id="bg" x1="60" y1="40" x2="470" y2="470" gradientUnits="userSpaceOnUse">
      <stop stop-color="#0C1D2E"/>
      <stop offset="1" stop-color="#07111F"/>
    </linearGradient>
    <linearGradient id="ring" x1="90" y1="60" x2="420" y2="450" gradientUnits="userSpaceOnUse">
      <stop stop-color="#67E8F9"/>
      <stop offset="0.5" stop-color="#38BDF8"/>
      <stop offset="1" stop-color="#8B5CF6"/>
    </linearGradient>
    <linearGradient id="stoneA" x1="135" y1="160" x2="375" y2="365" gradientUnits="userSpaceOnUse">
      <stop stop-color="#E2E8F0"/>
      <stop offset="1" stop-color="#94A3B8"/>
    </linearGradient>
    <linearGradient id="stoneB" x1="124" y1="178" x2="390" y2="392" gradientUnits="userSpaceOnUse">
      <stop stop-color="#F8FAFC"/>
      <stop offset="1" stop-color="#CBD5E1"/>
    </linearGradient>
    <linearGradient id="crystal" x1="190" y1="120" x2="322" y2="300" gradientUnits="userSpaceOnUse">
      <stop stop-color="#22D3EE"/>
      <stop offset="0.5" stop-color="#38BDF8"/>
      <stop offset="1" stop-color="#2563EB"/>
    </linearGradient>
  </defs>

  <rect width="512" height="512" rx="52" fill="url(#bg)"/>

  <circle cx="256" cy="256" r="205" fill="rgba(15,23,42,0.72)" stroke="url(#ring)" stroke-width="6"/>
  <circle cx="256" cy="256" r="165" stroke="rgba(103,232,249,0.18)" stroke-width="2" stroke-dasharray="5 10"/>

  <path d="M126 310L170 250L220 300L285 200L340 260L390 220L420 310V378H126V310Z" fill="url(#stoneA)" opacity="0.8"/>
  <path d="M115 350L165 310L205 340L248 290L302 336L348 300L402 340L440 350V410H115V350Z" fill="url(#stoneB)" opacity="0.95"/>

  <g opacity="0.95">
    <path d="M256 118L332 160L332 250L256 292L180 250L180 160L256 118Z" fill="url(#crystal)"/>
    <path d="M256 118V292" stroke="rgba(255,255,255,0.9)" stroke-width="5" stroke-linecap="round"/>
    <path d="M180 160L256 198L332 160" stroke="rgba(255,255,255,0.7)" stroke-width="4" stroke-linecap="round"/>
    <path d="M180 250L256 213L332 250" stroke="rgba(255,255,255,0.7)" stroke-width="4" stroke-linecap="round"/>
    <path d="M210 135L256 222L302 135" stroke="rgba(255,255,255,0.4)" stroke-width="2.5"/>
  </g>

  <g>
    <path d="M236 143H283V252H322V280H236V143ZM283 171H315V220H283V171Z" fill="#F8FAFC" fill-opacity="0.98"/>
    <path d="M236 143H228V280H236V143Z" fill="#E0F2FE" fill-opacity="0.9"/>
  </g>

  <g opacity="0.8">
    <circle cx="182" cy="170" r="6" fill="#67E8F9"/>
    <circle cx="332" cy="170" r="6" fill="#67E8F9"/>
    <circle cx="182" cy="240" r="6" fill="#67E8F9"/>
    <circle cx="332" cy="240" r="6" fill="#67E8F9"/>
  </g>

  <text x="256" y="408" text-anchor="middle" fill="#E2E8F0" font-family="Segoe UI, Arial, sans-serif" font-size="28" font-weight="700" letter-spacing="5">PETROLOGIE</text>
</svg>
